<mxfile host="app.diagrams.net" modified="2024-06-17T14:10:49.419Z" agent="Mozilla/5.0 (Windows NT 10.0; Win64; x64) AppleWebKit/537.36 (KHTML, like Gecko) Chrome/109.0.0.0 Safari/537.36" version="24.5.4" etag="vRS-weveMJd3N3tW5Zlm" type="github">
  <diagram name="第 1 页" id="bIg_1oRljBAJSG_HPVZJ">
    <mxGraphModel>
      <root>
        <mxCell id="0" />
        <mxCell id="1" parent="0" />
      </root>
    </mxGraphModel>
  </diagram>
</mxfile>
